Coordinates
version=1
nRows=17
nColumns=40
inDegrees=yes

Units are S.I. units (second, meters, Newtons, ...)
If the header above contains a line with 'inDegrees', this indicates whether rotational values are in degrees (yes) or radians (no).

endheader
time	pelvis_tilt	pelvis_list	pelvis_rotation	pelvis_tx	pelvis_ty	pelvis_tz	hip_flexion_r	hip_adduction_r	hip_rotation_r	knee_angle_r	knee_angle_r_beta	ankle_angle_r	subtalar_angle_r	mtp_angle_r	hip_flexion_l	hip_adduction_l	hip_rotation_l	knee_angle_l	knee_angle_l_beta	ankle_angle_l	subtalar_angle_l	mtp_angle_l	lumbar_extension	lumbar_bending	lumbar_rotation	arm_flex_r	arm_add_r	arm_rot_r	elbow_flex_r	pro_sup_r	wrist_flex_r	wrist_dev_r	arm_flex_l	arm_add_l	arm_rot_l	elbow_flex_l	pro_sup_l	wrist_flex_l	wrist_dev_l
      8.15000000	      9.33755558	     -4.39338670	    179.62486431	      0.30717488	      0.82461514	     -0.64102594	     50.21194301	     -9.39197381	      4.96004361	     49.41333857	      0.86242545	     14.59196574	      0.00000000	      0.00000000	     48.79797122	    -13.11568516	    -15.07788525	     51.44713089	      0.89792182	      7.72066985	      0.00000000	      0.00000000	    -57.83677466	     -3.75999902	     -3.09343906	     55.30103897	      0.00918187	     17.58666567	      3.07602416	      8.39111510	      0.00000000	      0.00000000	     61.86923741	     -9.25864045	     85.17886100	      4.30245234	     86.07552137	      0.00000000	      0.00000000
      8.15500000	      9.42930660	     -4.36571193	    179.65032181	      0.30723833	      0.82678683	     -0.64102542	     49.83826701	     -9.43668234	      4.83243261	     48.51529948	      0.84675171	     14.01925659	      0.00000000	      0.00000000	     48.49215161	    -12.92474650	    -14.90929357	     50.59867914	      0.88311355	      7.17033803	      0.00000000	      0.00000000	    -57.70544013	     -3.74260599	     -3.09620142	     55.20748761	      0.00616293	     17.58175030	      3.18886201	      8.40274965	      0.00000000	      0.00000000	     61.79916528	     -9.27514812	     85.16492529	      4.28175554	     86.07031071	      0.00000000	      0.00000000
      8.16000000	      9.54171838	     -4.33391053	    179.62886668	      0.30698065	      0.82838869	     -0.64104332	     49.72209095	     -9.49589551	      4.57670974	     48.15346544	      0.84043652	     13.82607084	      0.00000000	      0.00000000	     48.36293339	    -12.98718643	    -15.19986370	     50.26891371	      0.87735806	      7.05102679	      0.00000000	      0.00000000	    -57.46450633	     -3.76011431	     -3.03758022	     55.00744846	     -0.00189720	     17.54879545	      3.16427288	      8.39723915	      0.00000000	      0.00000000	     61.63106770	     -9.28103335	     85.16183911	      4.30051507	     86.07514926	      0.00000000	      0.00000000
      8.16500000	      9.54595314	     -4.31281454	    179.65199055	      0.30695425	      0.83066782	     -0.64101141	     49.30515465	     -9.55253173	      4.40996303	     47.35019255	      0.82641676	     13.16264184	      0.00000000	      0.00000000	     47.95433422	    -12.78898949	    -15.05238659	     49.43475031	      0.86279916	      6.56082499	      0.00000000	      0.00000000	    -57.41520172	     -3.74142657	     -3.03008531	     54.91811526	     -0.04152747	     17.48701435	      3.30618229	      8.42671578	      0.00000000	      0.00000000	     61.56854783	     -9.27831355	     85.09479816	      4.29683963	     86.06099651	      0.00000000	      0.00000000
      8.17000000	      9.64237195	     -4.25991747	    179.61889618	      0.30669657	      0.83228070	     -0.64097531	     49.19555039	     -9.55725919	      4.20127296	     47.03613888	      0.82093549	     12.96872700	      0.00000000	      0.00000000	     47.81423534	    -12.89090777	    -15.36399979	     49.12625979	      0.85741498	      6.45036129	      0.00000000	      0.00000000	    -57.18449322	     -3.74293143	     -2.95034983	     54.74146454	     -0.06154383	     17.44472811	      3.27886945	      8.42536081	      0.00000000	      0.00000000	     61.38689469	     -9.28427322	     85.07854427	      4.32372501	     86.06521239	      0.00000000	      0.00000000
      8.17500000	      9.69787082	     -4.23370262	    179.65095730	      0.30662902	      0.83424219	     -0.64108612	     48.86689293	     -9.57216428	      4.07777306	     46.31009873	      0.80826370	     12.37180181	      0.00000000	      0.00000000	     47.48532558	    -12.69843313	    -15.20203693	     48.32809046	      0.84348430	      6.01166842	      0.00000000	      0.00000000	    -57.05136058	     -3.73184219	     -2.94442759	     54.63059509	     -0.07022305	     17.36611078	      3.36223520	      8.45475488	      0.00000000	      0.00000000	     61.28009371	     -9.30973507	     85.03360155	      4.32116584	     86.06089970	      0.00000000	      0.00000000
      8.18000000	      9.73154395	     -4.21488067	    179.64970106	      0.30638903	      0.83609759	     -0.64120605	     48.59666948	     -9.62177784	      3.88763105	     45.77858738	      0.79898708	     11.91067498	      0.00000000	      0.00000000	     47.18677725	    -12.66007584	    -15.34549744	     47.76253136	      0.83361343	      5.69230315	      0.00000000	      0.00000000	    -56.90641890	     -3.75230245	     -2.89379075	     54.48775333	     -0.08026264	     17.29724227	      3.34703534	      8.46761179	      0.00000000	      0.00000000	     61.14142288	     -9.30507858	     85.00800542	      4.34432049	     86.06214940	      0.00000000	      0.00000000
      8.18500000	      9.80986191	     -4.15003956	    179.64631055	      0.30620707	      0.83780708	     -0.64121040	     48.37663732	     -9.60907641	      3.69874124	     45.25363034	      0.78982485	     11.50138977	      0.00000000	      0.00000000	     46.97378149	    -12.66986211	    -15.46017265	     47.25396895	      0.82473734	      5.40980040	      0.00000000	      0.00000000	    -56.70372890	     -3.73264700	     -2.82001535	     54.36687182	     -0.07113990	     17.26456305	      3.29363412	      8.46788652	      0.00000000	      0.00000000	     60.96665505	     -9.30021631	     85.00764941	      4.35083766	     86.06843218	      0.00000000	      0.00000000
      8.19000000	      9.84894751	     -4.15484336	    179.65141289	      0.30592604	      0.83949197	     -0.64128266	     48.13575201	     -9.68648201	      3.51377830	     44.77911905	      0.78154306	     11.14165070	      0.00000000	      0.00000000	     46.70549345	    -12.61481717	    -15.60393572	     46.75437248	      0.81601774	      5.13000041	      0.00000000	      0.00000000	    -56.53122551	     -3.76131509	     -2.80664411	     54.23120984	     -0.04258291	     17.25860266	      3.22202422	      8.45805999	      0.00000000	      0.00000000	     60.78043137	     -9.30426741	     85.00586732	      4.36099293	     86.06869174	      0.00000000	      0.00000000
      8.19500000	      9.92754971	     -4.08799619	    179.64993153	      0.30569758	      0.84110226	     -0.64130515	     47.90593800	     -9.67706104	      3.28207053	     44.24274451	      0.77218156	     10.79196221	      0.00000000	      0.00000000	     46.50643517	    -12.62181644	    -15.68162798	     46.25177347	      0.80724573	      4.85300366	      0.00000000	      0.00000000	    -56.30876905	     -3.74119703	     -2.71384329	     54.08122153	     -0.03517104	     17.27776348	      3.14808458	      8.43949903	      0.00000000	      0.00000000	     60.59413283	     -9.29319088	     84.99919287	      4.37844801	     86.06984393	      0.00000000	      0.00000000
      8.20000000	      9.98880110	     -4.04231803	    179.65206956	      0.30547514	      0.84269261	     -0.64134201	     47.64354881	     -9.69319124	      3.08968888	     43.68818677	      0.76250270	     10.45363788	      0.00000000	      0.00000000	     46.27618400	    -12.59146559	    -15.75371947	     45.75709873	      0.79861203	      4.60746812	      0.00000000	      0.00000000	    -56.09683383	     -3.73840101	     -2.64708277	     53.90993253	     -0.03565331	     17.30845147	      3.09584561	      8.41912729	      0.00000000	      0.00000000	     60.42058696	     -9.28768437	     84.98971924	      4.39331945	     86.07463311	      0.00000000	      0.00000000
      8.20500000	     10.03899691	     -3.96340565	    179.65172881	      0.30523631	      0.84430589	     -0.64135072	     47.36340510	     -9.70550111	      2.82084913	     43.13869538	      0.75291227	     10.10837750	      0.00000000	      0.00000000	     46.04653495	    -12.58466191	    -15.80140577	     45.24749778	      0.78971781	      4.34724059	      0.00000000	      0.00000000	    -55.89302903	     -3.70894985	     -2.54679364	     53.72124726	     -0.05383722	     17.34521820	      3.07377855	      8.40149887	      0.00000000	      0.00000000	     60.22776132	     -9.26882569	     84.95787595	      4.40497069	     86.07289014	      0.00000000	      0.00000000
      8.21000000	     10.07488528	     -3.88560085	    179.65205618	      0.30496129	      0.84588074	     -0.64137082	     47.07096686	     -9.70879522	      2.55803642	     42.60338176	      0.74356928	      9.75691313	      0.00000000	      0.00000000	     45.81546138	    -12.59611080	    -15.87397775	     44.77966549	      0.78155260	      4.09291556	      0.00000000	      0.00000000	    -55.68506666	     -3.68307981	     -2.46059572	     53.50450371	     -0.08147193	     17.37861282	      3.09392151	      8.39120566	      0.00000000	      0.00000000	     60.01770606	     -9.26559730	     84.89369072	      4.42834561	     86.06215269	      0.00000000	      0.00000000
      8.21500000	     10.11093814	     -3.81246922	    179.65143830	      0.30474212	      0.84744336	     -0.64139523	     46.78669789	     -9.71955824	      2.28786737	     42.06603661	      0.73419084	      9.39133991	      0.00000000	      0.00000000	     45.57699710	    -12.58925305	    -15.90628484	     44.28975742	      0.77300209	      3.84075275	      0.00000000	      0.00000000	    -55.47304164	     -3.65895078	     -2.37588266	     53.27069875	     -0.11877020	     17.39620386	      3.13411596	      8.38982253	      0.00000000	      0.00000000	     59.83501728	     -9.26336703	     84.84988866	      4.44383836	     86.06491709	      0.00000000	      0.00000000
      8.22000000	     10.19659199	     -3.76336069	    179.61543430	      0.30440711	      0.84860709	     -0.64153594	     46.69315824	     -9.72708696	      2.06334061	     41.81173996	      0.72975253	      9.26510330	      0.00000000	      0.00000000	     45.45606808	    -12.67908639	    -16.16883490	     44.02191110	      0.76832729	      3.78508917	      0.00000000	      0.00000000	    -55.15029488	     -3.70050324	     -2.29431717	     52.97823791	     -0.11947863	     17.36417315	      3.08563667	      8.37993338	      0.00000000	      0.00000000	     59.58125741	     -9.27798300	     84.84584611	      4.47398728	     86.07338476	      0.00000000	      0.00000000
      8.22500000	     10.15983226	     -3.61648611	    179.64007093	      0.30421459	      0.85041436	     -0.64138167	     46.24663482	     -9.72337197	      1.65777884	     41.11198857	      0.71753956	      8.64263496	      0.00000000	      0.00000000	     45.09744973	    -12.61418048	    -15.93804158	     43.32415339	      0.75614912	      3.41619626	      0.00000000	      0.00000000	    -55.02864656	     -3.58069116	     -2.16900369	     52.75649252	     -0.21410441	     17.34435896	      3.24234805	      8.41746071	      0.00000000	      0.00000000	     59.39859345	     -9.25608995	     84.81157623	      4.46350767	     86.06625472	      0.00000000	      0.00000000
      8.23000000	     10.22355333	     -3.51111176	    179.64023518	      0.30395740	      0.85176092	     -0.64124660	     46.02814712	     -9.72595107	      1.35053829	     40.66350820	      0.70971210	      8.38666278	      0.00000000	      0.00000000	     44.93360547	    -12.59441228	    -15.85140433	     42.91122593	      0.74894218	      3.25846862	      0.00000000	      0.00000000	    -54.74205907	     -3.51423122	     -2.07829516	     52.49132528	     -0.25713845	     17.30218356	      3.26878231	      8.43408389	      0.00000000	      0.00000000	     59.14478832	     -9.24549357	     84.80972182	      4.48401254	     86.07189095	      0.00000000	      0.00000000
